<?xml version="1.0" standalone="no"?>
<!DOCTYPE svg PUBLIC "-//W3C//DTD SVG 1.1//EN" "http://www.w3.org/Graphics/SVG/1.1/DTD/svg11.dtd">
<svg version="1.1" xmlns="http://www.w3.org/2000/svg" viewBox="0 0 717 330" width="1434.0258344606743" height="660.398341433685"><!-- svg-source:excalidraw --><metadata></metadata><defs><style class="style-fonts">
      @font-face { font-family: Lora; font-style: normal; font-weight: 400; src: url('/assets/fonts/lora-latin-400-normal.woff2') format('woff2'); }
      @font-face { font-family: Lora; font-style: italic; font-weight: 400; src: url('/assets/fonts/lora-latin-400-italic.woff2') format('woff2'); }
</style></defs><g stroke-linecap="round" transform="translate(27.987209453864466 234.64879343552371) rotate(0 89.09832951278486 9.549212325316773)"><path d="M0.04 -0.94 L177.78 0.85 L178.18 18.55 L-0.15 20.02" stroke="none" stroke-width="0" fill="#ffec99"></path><path d="M0 0 C47.29 0.27, 95.67 -0.39, 178.2 0 M0 0 C69.01 0.76, 138.27 1.07, 178.2 0 M178.2 0 C177.87 7.28, 177.5 12.24, 178.2 19.1 M178.2 0 C178.58 5.7, 177.87 11.14, 178.2 19.1 M178.2 19.1 C138.5 17.76, 100.96 18.81, 0 19.1 M178.2 19.1 C114.81 18.35, 51.09 18.94, 0 19.1 M0 19.1 C0.47 10.86, -0.68 3.41, 0 0 M0 19.1 C0.16 12.36, -0.03 5.93, 0 0" stroke="transparent" stroke-width="2" fill="none"></path></g><g stroke-linecap="round" transform="translate(26.00854386164906 208.0818278071461) rotate(0 246.91534726890308 9.822046963182913)"><path d="M-0.44 0.4 L493.34 0.02 L493.36 20.27 L0.5 20.4" stroke="none" stroke-width="0" fill="#ffec99"></path><path d="M0 0 C122.05 -0.54, 244.94 -0.34, 493.83 0 M0 0 C178.34 -0.84, 356.72 -0.87, 493.83 0 M493.83 0 C493.71 6.73, 492.83 13.56, 493.83 19.64 M493.83 0 C493.45 4.72, 494.25 9.45, 493.83 19.64 M493.83 19.64 C306.78 19.45, 118.92 19.63, 0 19.64 M493.83 19.64 C342.28 18.81, 190.35 18.83, 0 19.64 M0 19.64 C0.99 14.85, -0.71 11.2, 0 0 M0 19.64 C0.15 13.87, -0.03 9.15, 0 0" stroke="transparent" stroke-width="2" fill="none"></path></g><g stroke-linecap="round" transform="translate(193.22545211616136 181.71887368948262) rotate(0 169.43031011490461 10.094881601049082)"><path d="M1.14 -1.49 L339.8 0 L337.36 19.84 L0.91 18.99" stroke="none" stroke-width="0" fill="#ffec99"></path><path d="M0 0 C82.45 -2.42, 165.33 -0.9, 338.86 0 M0 0 C110.27 -1.37, 221.22 -0.81, 338.86 0 M338.86 0 C338.29 7.13, 337.85 14.84, 338.86 20.19 M338.86 0 C338.97 5.16, 338.08 8.99, 338.86 20.19 M338.86 20.19 C225.2 21.46, 110.58 19.79, 0 20.19 M338.86 20.19 C214.14 20.32, 89.63 19.98, 0 20.19 M0 20.19 C0.39 11.19, 0.11 6.39, 0 0 M0 20.19 C0 12.3, 0.19 4.84, 0 0" stroke="transparent" stroke-width="2" fill="none"></path></g><g transform="translate(26.278436830881105 177.42899402090325) rotate(0 253.02232360839844 40.29810054353297)"><text x="0" y="19.979897750966472" font-family="Lora, Georgia, serif" font-size="19.90029656470764px" fill="#1e1e1e" text-anchor="start" style="white-space: pre;" direction="ltr" dominant-baseline="alphabetic">"Finally, therefore, there is no long term consequence of </text><text x="0" y="46.84529811332179" font-family="Lora, Georgia, serif" font-size="19.90029656470764px" fill="#1e1e1e" text-anchor="start" style="white-space: pre;" direction="ltr" dominant-baseline="alphabetic">any sort to this patient's transient inability to move his </text><text x="0" y="73.7106984756771" font-family="Lora, Georgia, serif" font-size="19.90029656470764px" fill="#1e1e1e" text-anchor="start" style="white-space: pre;" direction="ltr" dominant-baseline="alphabetic">legs after the MVC."</text></g><g stroke-linecap="round" transform="translate(10 10) rotate(0 348.5064586151686 155.09958535842125)"><path d="M32 0 C203.34 0, 374.67 0, 665.01 0 M32 0 C196.4 0, 360.81 0, 665.01 0 M665.01 0 C686.35 0, 697.01 10.67, 697.01 32 M665.01 0 C686.35 0, 697.01 10.67, 697.01 32 M697.01 32 C697.01 113.75, 697.01 195.5, 697.01 278.2 M697.01 32 C697.01 103.55, 697.01 175.1, 697.01 278.2 M697.01 278.2 C697.01 299.53, 686.35 310.2, 665.01 310.2 M697.01 278.2 C697.01 299.53, 686.35 310.2, 665.01 310.2 M665.01 310.2 C455.69 310.2, 246.37 310.2, 32 310.2 M665.01 310.2 C511.49 310.2, 357.98 310.2, 32 310.2 M32 310.2 C10.67 310.2, 0 299.53, 0 278.2 M32 310.2 C10.67 310.2, 0 299.53, 0 278.2 M0 278.2 C0 189.91, 0 101.63, 0 32 M0 278.2 C0 214.79, 0 151.37, 0 32 M0 32 C0 10.67, 10.67 0, 32 0 M0 32 C0 10.67, 10.67 0, 32 0" stroke="#1e1e1e" stroke-width="2" fill="none"></path></g><g transform="translate(26.02275676546094 28.006590631466224) rotate(0 256.6806335449219 39.38758734279318)"><text x="0" y="19.528463057858946" font-family="Lora, Georgia, serif" font-size="19.450660416194168px" fill="#1e1e1e" text-anchor="start" style="white-space: pre;" direction="ltr" dominant-baseline="alphabetic">"Furthermore, there was no radiological finding that could </text><text x="0" y="45.786854619721076" font-family="Lora, Georgia, serif" font-size="19.450660416194168px" fill="#1e1e1e" text-anchor="start" style="white-space: pre;" direction="ltr" dominant-baseline="alphabetic">possibly explain the initial complaint of inability to move </text><text x="0" y="72.04524618158321" font-family="Lora, Georgia, serif" font-size="19.450660416194168px" fill="#1e1e1e" text-anchor="start" style="white-space: pre;" direction="ltr" dominant-baseline="alphabetic">his lower extremities." </text></g><g stroke-linecap="round"><g transform="translate(26.75456157477595 53.99252364981476) rotate(0 250.45080944858523 0)"><path d="M-0.1 0.34 C83.4 0.68, 418.1 0.95, 501.56 0.91 M-1.62 -0.52 C81.75 -0.41, 417.4 -1.06, 500.96 -0.73" stroke="#e03131" stroke-width="2" fill="none"></path></g></g><mask></mask><g stroke-linecap="round"><g transform="translate(26.036307549579874 80.18569145218385) rotate(0 250.45080944858523 0)"><path d="M0.93 0.63 C84.53 0.76, 417.54 1.02, 500.94 0.9 M-0.05 -0.09 C83.47 -0.3, 416.54 -0.97, 500.02 -0.74" stroke="#e03131" stroke-width="2" fill="none"></path></g></g><mask></mask><g stroke-linecap="round"><g transform="translate(26.632619000647765 105.23077239704219) rotate(0 95.11167644535561 0)"><path d="M0.38 0.56 C32.15 0.33, 158.18 -0.66, 189.63 -0.72 M-0.87 -0.19 C31.38 -0.34, 159.99 0.13, 192.03 0.45" stroke="#e03131" stroke-width="2" fill="none"></path></g></g><mask></mask><g stroke-linecap="round" transform="translate(338.02913903230285 109.44948859914427) rotate(0 177.78306227360133 29.51741682786897)"><path d="M14.76 0 C80.04 -2.52, 147.95 -1.22, 340.81 0 M14.76 0 C94.98 0.19, 176 -0.02, 340.81 0 M340.81 0 C351.28 -0.35, 355.36 5.72, 355.57 14.76 M340.81 0 C352 -1.7, 354.72 5.76, 355.57 14.76 M355.57 14.76 C354.52 19.45, 354.33 29.5, 355.57 44.28 M355.57 14.76 C356.1 21.81, 355.62 28, 355.57 44.28 M355.57 44.28 C354.74 53.89, 350.02 59.06, 340.81 59.03 M355.57 44.28 C355.44 56.26, 350.55 58.33, 340.81 59.03 M340.81 59.03 C222.21 58.89, 102.59 58.62, 14.76 59.03 M340.81 59.03 C231.37 60.96, 121.46 61.18, 14.76 59.03 M14.76 59.03 C3.41 59.67, 0.08 54.67, 0 44.28 M14.76 59.03 C4.77 59.3, -0.72 53.4, 0 44.28 M0 44.28 C1.11 34.54, -0.19 22.12, 0 14.76 M0 44.28 C-0.36 37.77, 0.38 31.65, 0 14.76 M0 14.76 C-1.53 3.52, 4.72 -1.6, 14.76 0 M0 14.76 C0.28 6.16, 3.96 1.62, 14.76 0" stroke="#e03131" stroke-width="2" fill="none"></path></g><g transform="translate(352.20291964824094 118.27078558218568) rotate(0 164.59140093950123 21.520843256611357)"><text x="0" y="15.167890327259673" font-family="Lora, Georgia, serif" font-style="italic" font-size="17.216674605289075px" fill="#e03131" text-anchor="start" style="white-space: pre;" direction="ltr" dominant-baseline="alphabetic">Yes there is. What about the </text><text x="0" y="36.68873358387101" font-family="Lora, Georgia, serif" font-style="italic" font-size="17.216674605289075px" fill="#e03131" text-anchor="start" style="white-space: pre;" direction="ltr" dominant-baseline="alphabetic">transient neuropraxia and spinal shock?</text></g><g stroke-linecap="round"><g transform="translate(336.4043599750447 129.77305185978287) rotate(0 -88.5403209605891 -9.5293516058573)"><path d="M-1.05 -0.4 C-16.21 0.37, -62.86 3.23, -89.88 3.77 C-116.9 4.31, -148.59 7.07, -163.19 2.85 C-177.79 -1.37, -175.09 -17.31, -177.48 -21.55 M0.59 -1.65 C-14.78 -1.14, -63.77 1.63, -90.66 2.08 C-117.55 2.54, -146.26 4.81, -160.73 1.09 C-175.19 -2.62, -174.98 -16.28, -177.45 -20.21" stroke="#e03131" stroke-width="2" fill="none"></path></g><g transform="translate(336.4043599750447 129.77305185978287) rotate(0 -88.5403209605891 -9.5293516058573)"><path d="M-168.61 -9.4 C-172.41 -13.28, -174.4 -18.8, -177.45 -20.21 M-168.61 -9.4 C-172.29 -13.94, -175.57 -18.24, -177.45 -20.21" stroke="#e03131" stroke-width="2" fill="none"></path></g><g transform="translate(336.4043599750447 129.77305185978287) rotate(0 -88.5403209605891 -9.5293516058573)"><path d="M-177.63 -6.25 C-177.92 -11.27, -176.42 -18.01, -177.45 -20.21 M-177.63 -6.25 C-177.76 -12.06, -177.5 -17.6, -177.45 -20.21" stroke="#e03131" stroke-width="2" fill="none"></path></g></g><mask></mask><g stroke-linecap="round" transform="translate(336.9577945387133 241.75109408827058) rotate(0 177.78306227360133 29.517416827868942)"><path d="M14.76 0 C117.48 -2.18, 217.75 -1.9, 340.81 0 M14.76 0 C132.18 1.39, 248.38 2.36, 340.81 0 M340.81 0 C350.34 1.86, 357.5 5.81, 355.57 14.76 M340.81 0 C352.23 0.95, 355.38 4.73, 355.57 14.76 M355.57 14.76 C356.45 26.22, 356.15 35.15, 355.57 44.28 M355.57 14.76 C355.26 24.93, 356.59 35.67, 355.57 44.28 M355.57 44.28 C355.59 56.03, 349.42 58.85, 340.81 59.03 M355.57 44.28 C357.82 54.6, 349.1 58.18, 340.81 59.03 M340.81 59.03 C239.75 57.03, 137.11 59.23, 14.76 59.03 M340.81 59.03 C238.63 59.77, 136.05 59.41, 14.76 59.03 M14.76 59.03 C6.76 58.04, -1.5 53.62, 0 44.28 M14.76 59.03 C6.84 58.14, 1.25 54.81, 0 44.28 M0 44.28 C-0.09 35.68, 1.09 28.06, 0 14.76 M0 44.28 C-1.14 35.77, 0.06 24.8, 0 14.76 M0 14.76 C1.39 5.56, 6.47 1.14, 14.76 0 M0 14.76 C-1.23 4.05, 4.22 -0.13, 14.76 0" stroke="#e03131" stroke-width="2" fill="none"></path></g><g transform="translate(351.1315751546514 250.5723910713121) rotate(0 164.07490255865036 21.52084325661133)"><text x="0" y="15.167890327259673" font-family="Lora, Georgia, serif" font-style="italic" font-size="17.216674605289075px" fill="#e03131" text-anchor="start" style="white-space: pre;" direction="ltr" dominant-baseline="alphabetic">Based on the tests which were missed,</text><text x="0" y="36.68873358387101" font-family="Lora, Georgia, serif" font-style="italic" font-size="17.216674605289075px" fill="#e03131" text-anchor="start" style="white-space: pre;" direction="ltr" dominant-baseline="alphabetic">this conclusion was premature.</text></g><g stroke-linecap="round"><g transform="translate(338.86353170530685 278.4705283155001) rotate(0 -12.161051502012356 -3.3350583594821614)"><path d="M0.06 -0.29 C-4.05 -1.56, -20.7 -6.13, -24.74 -7.22 M-0.58 0.75 C-4.5 -0.51, -19.74 -5.62, -23.72 -6.8" stroke="transparent" stroke-width="2" fill="none"></path></g><g transform="translate(338.86353170530685 278.4705283155001) rotate(0 -12.161051502012356 -3.3350583594821614)"><path d="M-11.12 -7.32 C-14.94 -7.65, -18.72 -6.9, -23.72 -6.8 M-11.12 -7.32 C-14.24 -7.41, -17.99 -7.19, -23.72 -6.8" stroke="transparent" stroke-width="2" fill="none"></path></g><g transform="translate(338.86353170530685 278.4705283155001) rotate(0 -12.161051502012356 -3.3350583594821614)"><path d="M-13.74 0.9 C-16.86 -1.71, -19.92 -3.22, -23.72 -6.8 M-13.74 0.9 C-16.14 -1.39, -19.2 -3.36, -23.72 -6.8" stroke="transparent" stroke-width="2" fill="none"></path></g></g><mask></mask><g stroke-linecap="round"><g transform="translate(334.6930428686311 259.4877705906213) rotate(0 -36.588704929399285 -10.468815219829821)"><path d="M0.93 0.89 C-8.06 0.64, -41.58 2.33, -53.77 -1.13 C-65.97 -4.59, -68.87 -16.4, -72.24 -19.86 M-0.05 0.31 C-9.22 0.16, -42.74 3.61, -54.82 -0.05 C-66.9 -3.7, -69.29 -18.09, -72.52 -21.63" stroke="#e03131" stroke-width="2" fill="none"></path></g><g transform="translate(334.6930428686311 259.4877705906213) rotate(0 -36.588704929399285 -10.468815219829821)"><path d="M-61.9 -12.13 C-64.21 -15.26, -69.61 -16.9, -72.52 -21.63 M-61.9 -12.13 C-66.42 -15.31, -69.9 -20.27, -72.52 -21.63" stroke="#e03131" stroke-width="2" fill="none"></path></g><g transform="translate(334.6930428686311 259.4877705906213) rotate(0 -36.588704929399285 -10.468815219829821)"><path d="M-70.49 -7.53 C-70.12 -12.17, -72.83 -15.25, -72.52 -21.63 M-70.49 -7.53 C-71.63 -12.44, -71.76 -19.18, -72.52 -21.63" stroke="#e03131" stroke-width="2" fill="none"></path></g></g><mask></mask></svg>